PathFileType	4	(X/Y/Z)	Run_200 01
DataRate	CameraRate	NumFrames	NumMarkers	Units	OrigDataRate	OrigDataStartFrame	OrigNumFrames
120	120	4	42	mm	120	4	128
Frame#	Time	LASI			RASI			LPSI			RPSI			RTH1			RTH2			RTH3			LTH1			LTH2			LTH3			RTB1			RTB2			RTB3			LTB1			LTB2			LTB3			RCAL			RTOE			RMT5			LCAL			LTOE			LMT5			LACR			RACR			CLAV			C7			RUA1			RUA2			RUA3			RLEL			LUA1			LUA2			LUA3			LLEL			RFAsuperior			RFAradius			RFAulna			LFAsuperior			LFAradius			LFAulna			LMEL			RMEL		
		X1	Y1	Z1	X2	Y2	Z2	X3	Y3	Z3	X4	Y4	Z4	X5	Y5	Z5	X6	Y6	Z6	X7	Y7	Z7	X8	Y8	Z8	X9	Y9	Z9	X10	Y10	Z10	X11	Y11	Z11	X12	Y12	Z12	X13	Y13	Z13	X14	Y14	Z14	X15	Y15	Z15	X16	Y16	Z16	X17	Y17	Z17	X18	Y18	Z18	X19	Y19	Z19	X20	Y20	Z20	X21	Y21	Z21	X22	Y22	Z22	X23	Y23	Z23	X24	Y24	Z24	X25	Y25	Z25	X26	Y26	Z26	X27	Y27	Z27	X28	Y28	Z28	X29	Y29	Z29	X30	Y30	Z30	X31	Y31	Z31	X32	Y32	Z32	X33	Y33	Z33	X34	Y34	Z34	X35	Y35	Z35	X36	Y36	Z36	X37	Y37	Z37	X38	Y38	Z38	X39	Y39	Z39	X40	Y40	Z40	X41	Y41	Z41	X42	Y42	Z42	

4	  0.033333	1070.868590	1013.422969	-424.475680	1067.311168	1025.367818	-191.558734	903.714678	1057.183655	-364.277996	900.785611	1057.107118	-266.072660	1051.755324	872.653411	-131.184768	1180.034615	768.295421	-160.034387	1160.944556	663.924723	-174.458837	984.748783	846.487536	-481.864642	1045.781448	738.543417	-455.792413	949.470387	626.225147	-440.840540	1229.914028	447.261022	-225.458045	1157.593371	408.443631	-170.102891	1162.649816	279.554666	-226.346195	931.787205	384.707704	-372.262885	846.870506	319.550339	-415.551714	820.899677	226.350814	-346.088108	1010.626260	173.669756	-260.936488	1210.682742	106.305815	-258.050080	1177.313986	 79.296040	-156.473839	654.373731	164.869203	-334.978403	835.414483	 76.560286	-287.124689	817.917609	 43.387909	-392.891822	1064.014614	1501.728585	-503.327090	1028.293378	1497.576941	-139.926541	1118.162500	1452.221715	-286.396023	1008.582417	1533.637038	-332.605694	978.624595	1428.006286	-97.427867	959.461649	1341.141627	-113.328532	877.102245	1365.061391	-117.273105	813.094565	1272.620121	-101.063156	1037.851789	1421.018133	-554.196143	970.410508	1371.649537	-541.041405	1028.061739	1315.017566	-571.618594	959.303911	1214.088142	-602.315270	855.774120	1194.007867	-72.677814	890.227357	1009.089831	-78.430781	827.586970	1005.106707	-104.378123	1040.989132	1215.775439	-578.996749	1185.427684	1231.900584	-453.469863	1183.555042	1165.152778	-457.387764	915.058434	1214.509690	-539.793475	814.104425	1271.700480	-166.829569	
5	  0.041667	1073.259786	1018.808927	-424.180245	1068.563182	1032.657053	-191.715452	905.615546	1063.115490	-365.288043	902.683096	1063.483219	-267.312748	1052.914789	880.322702	-130.667265	1177.679317	771.433038	-161.103889	1157.282998	668.271285	-174.464987	984.854738	852.773844	-482.549302	1042.806754	743.458098	-455.583271	943.879279	633.210223	-441.443422	1233.946691	451.294343	-226.440225	1166.354675	407.712559	-169.322282	1178.121922	279.727503	-227.078465	922.648754	391.401964	-374.082359	837.415665	326.768661	-417.204573	812.150788	232.852220	-348.096851	1032.673183	166.412875	-259.162998	1235.136725	107.407009	-262.720400	1205.247572	 75.594427	-161.598834	646.348168	175.348615	-336.153424	821.565184	 77.264076	-287.220893	802.158214	 44.212274	-393.247864	1065.736376	1508.528665	-501.963271	1027.585725	1503.674625	-139.735078	1117.987572	1458.427446	-285.009109	1009.152153	1539.625576	-331.868592	976.737740	1435.693638	-97.637012	957.310271	1348.730402	-113.294322	875.435021	1373.692907	-118.181957	809.873907	1281.975466	-102.962243	1040.081003	1428.471431	-553.402586	972.627622	1379.434927	-541.324735	1030.641762	1322.649758	-571.724280	962.153992	1221.409968	-603.111494	851.617370	1203.406347	-73.750874	885.536325	1017.941597	-78.693419	822.797294	1014.630668	-104.627297	1043.554842	1224.356216	-579.117963	1185.843821	1244.533827	-451.622791	1185.032638	1177.898517	-453.905623	916.971759	1222.001109	-541.004539	811.524585	1281.497572	-168.529829	
6	  0.050000	1075.704418	1024.111634	-424.002865	1069.832088	1039.578847	-191.841290	907.769779	1068.747735	-366.346252	904.409699	1069.688132	-268.524210	1054.004348	887.414262	-130.316979	1175.112751	774.486107	-161.577183	1153.579492	672.145044	-174.301041	985.150429	858.551460	-483.022243	1040.124158	748.326101	-455.508672	938.784918	640.220151	-442.025500	1237.493745	455.088920	-227.386080	1174.728933	407.100220	-168.617198	1193.001797	280.188774	-227.781686	914.129924	398.033784	-375.783756	828.511291	333.967940	-418.815249	803.877875	239.340443	-350.042795	1054.261344	159.811097	-257.494227	1258.792905	109.080474	-267.433805	1232.488022	 72.586229	-166.958884	638.931886	186.073931	-337.390167	807.884978	 78.207252	-287.474022	786.685036	 45.486697	-393.594752	1067.368901	1514.998367	-500.572741	1027.020092	1509.398303	-139.538389	1117.799332	1464.268605	-283.678191	1009.653487	1545.304520	-331.083875	975.155749	1443.027340	-97.667225	955.284783	1356.020295	-113.142572	873.912895	1382.009510	-119.129265	806.872108	1290.953756	-104.844646	1042.191387	1435.627924	-552.551027	974.696648	1386.922289	-541.515328	1032.998457	1330.028424	-571.832355	964.754239	1228.491743	-603.924244	847.683079	1212.433163	-74.776248	881.229794	1026.463970	-78.886568	818.486720	1023.558028	-104.825324	1045.855787	1232.603025	-579.231740	1186.002723	1256.518911	-449.902736	1186.218336	1189.981593	-450.751664	918.695691	1229.201215	-542.295384	809.292906	1290.818813	-170.222261	
7	  0.058333	1078.200769	1029.222012	-423.994874	1071.132922	1045.836329	-191.935653	910.276248	1073.902579	-367.422483	905.942176	1075.520080	-269.631735	1054.922938	893.517737	-130.260237	1172.305793	777.261204	-161.258912	1149.855957	675.237413	-173.897277	985.710924	863.616338	-483.257781	1037.900054	753.086791	-455.663860	934.505226	647.158032	-442.507930	1240.278816	458.479763	-228.218484	1182.330611	406.654395	-168.059087	1206.848656	281.092645	-228.434109	906.667284	404.502259	-377.259027	820.547996	341.078728	-420.309718	796.348629	245.781649	-351.828749	1074.971640	154.280962	-256.109466	1281.038011	111.731847	-272.117683	1258.435404	 70.812090	-172.580698	632.437221	197.145522	-338.720168	794.521918	 79.639508	-287.939407	771.694803	 47.514891	-393.910654	1068.828587	1520.905148	-499.126891	1026.676129	1514.508527	-139.274626	1117.592251	1469.498471	-282.427053	1010.036634	1550.443962	-330.223419	974.021064	1449.761770	-97.412727	953.473024	1362.774371	-112.823835	872.616453	1389.778805	-120.130656	804.223291	1299.294865	-106.657762	1044.095131	1442.279711	-551.620400	976.524420	1393.888087	-541.572763	1034.985641	1336.954874	-571.945821	966.941429	1235.148202	-604.752230	844.129014	1220.790423	-75.730956	877.553085	1034.397594	-78.960252	814.937808	1031.525328	-104.964344	1047.722388	1240.266351	-579.333050	1185.750456	1267.413407	-448.362858	1186.940380	1200.950534	-448.122498	920.098458	1235.901235	-543.680418	807.595179	1299.315577	-171.892649	
